<?xml version="1.0" standalone="no"?>
<!DOCTYPE svg PUBLIC "-//W3C//DTD SVG 20010904//EN"
 "http://www.w3.org/TR/2001/REC-SVG-20010904/DTD/svg10.dtd">
<svg version="1.0" xmlns="http://www.w3.org/2000/svg"
 width="260.000000pt" height="260.000000pt" viewBox="0 0 260.000000 260.000000"
 preserveAspectRatio="xMidYMid meet">
<metadata>
Created by potrace 1.11, written by Peter Selinger 2001-2013
</metadata>
<g transform="translate(0.000000,260.000000) scale(0.100000,-0.100000)"
fill="#000000" stroke="none">
<path d="M1140 2200 c-19 -4 -50 -10 -68 -14 -142 -28 -330 -135 -407 -231
-16 -21 -43 -56 -58 -78 -15 -23 -29 -43 -31 -45 -2 -2 -24 2 -47 8 -24 7 -53
14 -64 17 -71 16 -352 9 -443 -12 l-22 -5 0 -534 0 -534 33 -6 c179 -33 452
-22 569 23 24 9 30 5 69 -42 83 -97 159 -157 266 -207 274 -129 622 -89 877
99 52 38 166 157 166 172 0 4 24 -3 53 -16 69 -32 193 -52 289 -48 75 3 239
43 265 65 10 8 13 67 13 249 0 221 -1 239 -17 239 -10 0 -78 2 -152 3 l-134 2
-3 -73 c-1 -40 -6 -81 -9 -92 -6 -20 -3 -20 77 -13 46 3 106 7 133 7 l50 1 2
-87 c1 -48 -2 -90 -6 -92 -8 -6 -51 -15 -96 -21 -16 -3 -98 -7 -182 -9 l-152
-5 -6 31 c-10 43 -8 103 4 141 26 83 35 295 17 418 -10 70 -7 141 7 155 8 8
320 11 366 4 24 -3 35 -11 37 -25 6 -31 8 -208 3 -225 -3 -11 5 -16 29 -18
l32 -3 -2 202 -3 202 -38 13 c-56 19 -113 28 -197 28 -110 1 -182 -14 -291
-58 -12 -5 -25 9 -53 57 -109 186 -289 306 -526 352 -51 10 -309 14 -350 5z
m445 -252 c1 -1 6 -32 9 -67 31 -311 20 -1059 -15 -1096 -12 -12 -500 -14
-540 -3 -25 7 -27 13 -34 85 -4 43 -8 85 -10 93 -2 8 -6 51 -10 95 -3 44 -8
103 -11 130 -10 111 -15 723 -6 729 17 10 142 26 257 32 61 4 111 7 112 8 4 4
244 -2 248 -6z m-1096 -244 c6 -5 3 -163 -3 -189 -2 -11 -5 -39 -5 -62 l-1
-43 -144 0 -144 0 2 148 1 147 45 5 c50 6 242 1 249 -6z m-34 -452 c28 -8 30
-12 42 -90 7 -45 22 -107 33 -139 27 -77 26 -103 -2 -104 -13 -1 -36 -2 -53
-4 -32 -3 -185 -7 -246 -6 l-35 1 -3 53 c-7 122 -3 282 7 301 6 10 211 0 257
-12z"/>
</g>
</svg>
